<svg width="1440" height="900" viewBox="0 0 1440 900" fill="none" xmlns="http://www.w3.org/2000/svg">
<g clip-path="url(#clip0_1606_1307)">
<line x1="96.5" y1="2.18557e-08" x2="96.5" y2="900" stroke="#314158" stroke-opacity="0.05"/>
<line x1="480.5" y1="2.18557e-08" x2="480.5" y2="900" stroke="#314158" stroke-opacity="0.05"/>
<line x1="864.5" y1="2.18557e-08" x2="864.5" y2="900" stroke="#314158" stroke-opacity="0.05"/>
<line x1="288.5" y1="2.18557e-08" x2="288.5" y2="900" stroke="#314158" stroke-opacity="0.05"/>
<line x1="672.5" y1="2.18557e-08" x2="672.5" y2="900" stroke="#314158" stroke-opacity="0.05"/>
<line x1="1056.5" y1="2.18557e-08" x2="1056.5" y2="900" stroke="#314158" stroke-opacity="0.05"/>
<line x1="1248.5" y1="2.18557e-08" x2="1248.5" y2="900" stroke="#314158" stroke-opacity="0.05"/>
<line x1="192.5" y1="2.18557e-08" x2="192.5" y2="900" stroke="#314158" stroke-opacity="0.05"/>
<line x1="576.5" y1="2.18557e-08" x2="576.5" y2="900" stroke="#314158" stroke-opacity="0.05"/>
<line x1="960.5" y1="2.18557e-08" x2="960.5" y2="900" stroke="#314158" stroke-opacity="0.05"/>
<line x1="384.5" y1="2.18557e-08" x2="384.5" y2="900" stroke="#314158" stroke-opacity="0.05"/>
<line x1="768.5" y1="2.18557e-08" x2="768.5" y2="900" stroke="#314158" stroke-opacity="0.05"/>
<line x1="1152.5" y1="2.18557e-08" x2="1152.5" y2="900" stroke="#314158" stroke-opacity="0.05"/>
<line x1="1344.5" y1="2.18557e-08" x2="1344.5" y2="900" stroke="#314158" stroke-opacity="0.05"/>
<line y1="95.5" x2="1440" y2="95.5" stroke="#314158" stroke-opacity="0.05"/>
<line y1="287.5" x2="1440" y2="287.5" stroke="#314158" stroke-opacity="0.05"/>
<line y1="479.5" x2="1440" y2="479.5" stroke="#314158" stroke-opacity="0.05"/>
<line y1="671.5" x2="1440" y2="671.5" stroke="#314158" stroke-opacity="0.05"/>
<line y1="191.5" x2="1440" y2="191.5" stroke="#314158" stroke-opacity="0.05"/>
<line y1="383.5" x2="1440" y2="383.5" stroke="#314158" stroke-opacity="0.05"/>
<line y1="575.5" x2="1440" y2="575.5" stroke="#314158" stroke-opacity="0.05"/>
<line y1="767.5" x2="1440" y2="767.5" stroke="#314158" stroke-opacity="0.05"/>
<line y1="863.5" x2="1440" y2="863.5" stroke="#314158" stroke-opacity="0.05"/>
</g>
</svg>
